<mxfile host="app.diagrams.net" agent="Mozilla/5.0 (Windows NT 10.0; Win64; x64) AppleWebKit/537.36 (KHTML, like Gecko) Chrome/132.0.0.0 Safari/537.36" version="26.0.12">
  <diagram name="Page-1" id="UNi4WcKbqIIY6_oleP-8">
    <mxGraphModel dx="1562" dy="810" grid="1" gridSize="10" guides="1" tooltips="1" connect="1" arrows="1" fold="1" page="1" pageScale="1" pageWidth="1100" pageHeight="850" math="0" shadow="0">
      <root>
        <mxCell id="ympUBMgaRm9vFQZxo2nO-0" />
        <mxCell id="ympUBMgaRm9vFQZxo2nO-1" parent="ympUBMgaRm9vFQZxo2nO-0" />
        <mxCell id="ympUBMgaRm9vFQZxo2nO-70" value="U" style="text;html=1;strokeColor=none;fillColor=none;align=center;verticalAlign=middle;whiteSpace=wrap;rounded=0;shadow=0;fontSize=23;rotation=0;" parent="ympUBMgaRm9vFQZxo2nO-1" vertex="1">
          <mxGeometry x="285" y="570" width="30" height="20" as="geometry" />
        </mxCell>
        <mxCell id="ympUBMgaRm9vFQZxo2nO-2" value="&lt;span style=&quot;border-bottom: 1px dotted&quot;&gt;Date&lt;/span&gt;" style="ellipse;whiteSpace=wrap;html=1;align=center;shadow=0;strokeColor=#666666;strokeWidth=1;fillColor=#FFFFFF;" parent="ympUBMgaRm9vFQZxo2nO-1" vertex="1">
          <mxGeometry x="551.01" y="590" width="100" height="40" as="geometry" />
        </mxCell>
        <mxCell id="ympUBMgaRm9vFQZxo2nO-5" style="edgeStyle=none;rounded=0;sketch=0;jumpStyle=none;orthogonalLoop=1;jettySize=auto;html=1;exitX=0.75;exitY=1;exitDx=0;exitDy=0;entryX=0;entryY=0;entryDx=0;entryDy=0;startArrow=none;startFill=0;endArrow=none;endFill=0;strokeWidth=1;" parent="ympUBMgaRm9vFQZxo2nO-1" source="ympUBMgaRm9vFQZxo2nO-8" target="ympUBMgaRm9vFQZxo2nO-23" edge="1">
          <mxGeometry relative="1" as="geometry" />
        </mxCell>
        <mxCell id="ympUBMgaRm9vFQZxo2nO-6" style="edgeStyle=none;rounded=0;sketch=0;jumpStyle=none;orthogonalLoop=1;jettySize=auto;html=1;exitX=0.5;exitY=1;exitDx=0;exitDy=0;entryX=0;entryY=0;entryDx=0;entryDy=0;startArrow=none;startFill=0;endArrow=none;endFill=0;strokeWidth=1;" parent="ympUBMgaRm9vFQZxo2nO-1" source="ympUBMgaRm9vFQZxo2nO-8" target="ympUBMgaRm9vFQZxo2nO-24" edge="1">
          <mxGeometry relative="1" as="geometry" />
        </mxCell>
        <mxCell id="ympUBMgaRm9vFQZxo2nO-7" style="edgeStyle=none;rounded=0;sketch=0;jumpStyle=none;orthogonalLoop=1;jettySize=auto;html=1;exitX=0.25;exitY=1;exitDx=0;exitDy=0;entryX=0.5;entryY=0;entryDx=0;entryDy=0;startArrow=none;startFill=0;endArrow=none;endFill=0;strokeWidth=1;" parent="ympUBMgaRm9vFQZxo2nO-1" source="ympUBMgaRm9vFQZxo2nO-8" edge="1">
          <mxGeometry relative="1" as="geometry">
            <mxPoint x="551.0200000000002" y="770" as="targetPoint" />
          </mxGeometry>
        </mxCell>
        <mxCell id="ympUBMgaRm9vFQZxo2nO-8" value="&lt;b&gt;APPLICATION&lt;/b&gt;" style="shape=ext;margin=3;double=1;whiteSpace=wrap;html=1;align=center;shadow=0;strokeColor=#666666;strokeWidth=1;fillColor=#E3E3E3;" parent="ympUBMgaRm9vFQZxo2nO-1" vertex="1">
          <mxGeometry x="541.01" y="650" width="120" height="40" as="geometry" />
        </mxCell>
        <mxCell id="ympUBMgaRm9vFQZxo2nO-19" value="&lt;b&gt;HAS&lt;/b&gt;" style="shape=rhombus;double=1;perimeter=rhombusPerimeter;whiteSpace=wrap;html=1;align=center;shadow=0;strokeColor=#666666;strokeWidth=1;fillColor=#EEEEEE;" parent="ympUBMgaRm9vFQZxo2nO-1" vertex="1">
          <mxGeometry x="830" y="215" width="60" height="60" as="geometry" />
        </mxCell>
        <mxCell id="ympUBMgaRm9vFQZxo2nO-22" value="" style="endArrow=none;html=1;strokeWidth=1;exitX=0.5;exitY=0;exitDx=0;exitDy=0;entryX=0.5;entryY=1;entryDx=0;entryDy=0;" parent="ympUBMgaRm9vFQZxo2nO-1" source="ympUBMgaRm9vFQZxo2nO-8" target="ympUBMgaRm9vFQZxo2nO-2" edge="1">
          <mxGeometry width="50" height="50" relative="1" as="geometry">
            <mxPoint x="251.01" y="860" as="sourcePoint" />
            <mxPoint x="251.01" y="840" as="targetPoint" />
          </mxGeometry>
        </mxCell>
        <mxCell id="ympUBMgaRm9vFQZxo2nO-23" value="Status" style="ellipse;whiteSpace=wrap;html=1;align=center;shadow=0;strokeColor=#666666;strokeWidth=1;fillColor=#FFFFFF;" parent="ympUBMgaRm9vFQZxo2nO-1" vertex="1">
          <mxGeometry x="651.01" y="700" width="100" height="40" as="geometry" />
        </mxCell>
        <mxCell id="ympUBMgaRm9vFQZxo2nO-24" value="Fee" style="ellipse;whiteSpace=wrap;html=1;align=center;shadow=0;strokeColor=#666666;strokeWidth=1;fillColor=#FFFFFF;" parent="ympUBMgaRm9vFQZxo2nO-1" vertex="1">
          <mxGeometry x="601.02" y="750" width="100" height="40" as="geometry" />
        </mxCell>
        <mxCell id="ympUBMgaRm9vFQZxo2nO-25" value="IsFeeWaived" style="ellipse;whiteSpace=wrap;html=1;align=center;shadow=0;strokeColor=#666666;strokeWidth=1;fillColor=#FFFFFF;" parent="ympUBMgaRm9vFQZxo2nO-1" vertex="1">
          <mxGeometry x="501.02" y="770" width="100" height="40" as="geometry" />
        </mxCell>
        <mxCell id="ympUBMgaRm9vFQZxo2nO-26" value="" style="edgeStyle=none;rounded=0;sketch=0;jumpStyle=none;orthogonalLoop=1;jettySize=auto;html=1;startArrow=none;startFill=0;endArrow=none;endFill=0;strokeWidth=1;entryX=0;entryY=1;entryDx=0;entryDy=0;" parent="ympUBMgaRm9vFQZxo2nO-1" source="ympUBMgaRm9vFQZxo2nO-27" target="ympUBMgaRm9vFQZxo2nO-8" edge="1">
          <mxGeometry relative="1" as="geometry" />
        </mxCell>
        <mxCell id="ympUBMgaRm9vFQZxo2nO-27" value="DecisionDate" style="ellipse;whiteSpace=wrap;html=1;align=center;shadow=0;strokeColor=#666666;strokeWidth=1;fillColor=#FFFFFF;" parent="ympUBMgaRm9vFQZxo2nO-1" vertex="1">
          <mxGeometry x="441.01" y="730" width="100" height="40" as="geometry" />
        </mxCell>
        <mxCell id="ympUBMgaRm9vFQZxo2nO-29" value="&lt;b&gt;PERSON&lt;/b&gt;" style="whiteSpace=wrap;html=1;align=center;shadow=0;strokeColor=#666666;strokeWidth=1;fillColor=#E3E3E3;" parent="ympUBMgaRm9vFQZxo2nO-1" vertex="1">
          <mxGeometry x="121" y="460" width="120" height="40" as="geometry" />
        </mxCell>
        <mxCell id="ympUBMgaRm9vFQZxo2nO-30" value="Phone" style="ellipse;whiteSpace=wrap;html=1;align=center;shadow=0;strokeColor=#666666;strokeWidth=1;fillColor=#FFFFFF;" parent="ympUBMgaRm9vFQZxo2nO-1" vertex="1">
          <mxGeometry x="10" y="520" width="80" height="40" as="geometry" />
        </mxCell>
        <mxCell id="ympUBMgaRm9vFQZxo2nO-31" value="LastName" style="ellipse;whiteSpace=wrap;html=1;align=center;shadow=0;strokeColor=#666666;strokeWidth=1;fillColor=#FFFFFF;" parent="ympUBMgaRm9vFQZxo2nO-1" vertex="1">
          <mxGeometry x="10" y="460" width="80" height="40" as="geometry" />
        </mxCell>
        <mxCell id="ympUBMgaRm9vFQZxo2nO-32" value="FirstName" style="ellipse;whiteSpace=wrap;html=1;align=center;shadow=0;strokeColor=#666666;strokeWidth=1;fillColor=#FFFFFF;" parent="ympUBMgaRm9vFQZxo2nO-1" vertex="1">
          <mxGeometry x="10" y="400" width="80" height="40" as="geometry" />
        </mxCell>
        <mxCell id="ympUBMgaRm9vFQZxo2nO-33" value="" style="endArrow=none;html=1;strokeWidth=1;entryX=0;entryY=1;entryDx=0;entryDy=0;exitX=1;exitY=0;exitDx=0;exitDy=0;" parent="ympUBMgaRm9vFQZxo2nO-1" source="ympUBMgaRm9vFQZxo2nO-30" target="ympUBMgaRm9vFQZxo2nO-29" edge="1">
          <mxGeometry width="50" height="50" relative="1" as="geometry">
            <mxPoint x="100" y="560" as="sourcePoint" />
            <mxPoint x="150" y="540" as="targetPoint" />
          </mxGeometry>
        </mxCell>
        <mxCell id="ympUBMgaRm9vFQZxo2nO-34" value="" style="endArrow=none;html=1;strokeWidth=1;exitX=1;exitY=0.5;exitDx=0;exitDy=0;entryX=0;entryY=0.5;entryDx=0;entryDy=0;" parent="ympUBMgaRm9vFQZxo2nO-1" source="ympUBMgaRm9vFQZxo2nO-31" target="ympUBMgaRm9vFQZxo2nO-29" edge="1">
          <mxGeometry width="50" height="50" relative="1" as="geometry">
            <mxPoint x="110" y="485" as="sourcePoint" />
            <mxPoint x="150" y="600" as="targetPoint" />
          </mxGeometry>
        </mxCell>
        <mxCell id="ympUBMgaRm9vFQZxo2nO-35" style="edgeStyle=none;shape=link;rounded=0;sketch=0;jumpStyle=none;orthogonalLoop=1;jettySize=auto;html=1;exitX=0.5;exitY=1;exitDx=0;exitDy=0;startArrow=none;startFill=0;endArrow=none;endFill=0;strokeWidth=1;" parent="ympUBMgaRm9vFQZxo2nO-1" source="ympUBMgaRm9vFQZxo2nO-31" target="ympUBMgaRm9vFQZxo2nO-31" edge="1">
          <mxGeometry relative="1" as="geometry" />
        </mxCell>
        <mxCell id="ympUBMgaRm9vFQZxo2nO-36" value="" style="endArrow=none;html=1;strokeWidth=1;entryX=1;entryY=1;entryDx=0;entryDy=0;exitX=0;exitY=0;exitDx=0;exitDy=0;" parent="ympUBMgaRm9vFQZxo2nO-1" source="ympUBMgaRm9vFQZxo2nO-29" target="ympUBMgaRm9vFQZxo2nO-32" edge="1">
          <mxGeometry width="50" height="50" relative="1" as="geometry">
            <mxPoint x="270" y="440" as="sourcePoint" />
            <mxPoint x="100" y="545" as="targetPoint" />
          </mxGeometry>
        </mxCell>
        <mxCell id="ympUBMgaRm9vFQZxo2nO-37" value="Email" style="ellipse;whiteSpace=wrap;html=1;align=center;fontStyle=4;shadow=0;strokeColor=#666666;strokeWidth=1;fillColor=#FFFFFF;" parent="ympUBMgaRm9vFQZxo2nO-1" vertex="1">
          <mxGeometry x="141" y="405" width="80" height="40" as="geometry" />
        </mxCell>
        <mxCell id="ympUBMgaRm9vFQZxo2nO-38" value="" style="endArrow=none;html=1;strokeWidth=1;entryX=0.5;entryY=0;entryDx=0;entryDy=0;exitX=0.5;exitY=1;exitDx=0;exitDy=0;" parent="ympUBMgaRm9vFQZxo2nO-1" source="ympUBMgaRm9vFQZxo2nO-37" target="ympUBMgaRm9vFQZxo2nO-29" edge="1">
          <mxGeometry width="50" height="50" relative="1" as="geometry">
            <mxPoint x="80" y="615" as="sourcePoint" />
            <mxPoint x="170" y="510" as="targetPoint" />
          </mxGeometry>
        </mxCell>
        <mxCell id="ympUBMgaRm9vFQZxo2nO-43" value="&lt;b&gt;&lt;font style=&quot;font-size: 16px&quot;&gt;d&lt;/font&gt;&lt;/b&gt;" style="ellipse;whiteSpace=wrap;html=1;aspect=fixed;shadow=0;strokeColor=#666666;strokeWidth=1;gradientColor=none;fillColor=none;" parent="ympUBMgaRm9vFQZxo2nO-1" vertex="1">
          <mxGeometry x="280" y="460" width="40" height="40" as="geometry" />
        </mxCell>
        <mxCell id="ympUBMgaRm9vFQZxo2nO-53" value="&lt;b&gt;DOG&lt;/b&gt;" style="whiteSpace=wrap;html=1;align=center;shadow=0;strokeColor=#666666;strokeWidth=1;fillColor=#E3E3E3;" parent="ympUBMgaRm9vFQZxo2nO-1" vertex="1">
          <mxGeometry x="720" y="125" width="120" height="40" as="geometry" />
        </mxCell>
        <mxCell id="ympUBMgaRm9vFQZxo2nO-54" value="&lt;b&gt;BREED&lt;/b&gt;" style="whiteSpace=wrap;html=1;align=center;shadow=0;strokeColor=#666666;strokeWidth=1;fillColor=#E3E3E3;" parent="ympUBMgaRm9vFQZxo2nO-1" vertex="1">
          <mxGeometry x="460" y="225" width="120" height="40" as="geometry" />
        </mxCell>
        <mxCell id="ympUBMgaRm9vFQZxo2nO-55" value="&lt;b&gt;MICROCHIP&lt;/b&gt;" style="whiteSpace=wrap;html=1;align=center;shadow=0;strokeColor=#666666;strokeWidth=1;fillColor=#E3E3E3;" parent="ympUBMgaRm9vFQZxo2nO-1" vertex="1">
          <mxGeometry x="720" y="340" width="119.99" height="40" as="geometry" />
        </mxCell>
        <mxCell id="ympUBMgaRm9vFQZxo2nO-56" value="&lt;b&gt;CATEGORY&lt;/b&gt;&lt;span style=&quot;color: rgba(0 , 0 , 0 , 0) ; font-family: monospace ; font-size: 0px&quot;&gt;%3CmxGraphModel%3E%3Croot%3E%3CmxCell%20id%3D%220%22%2F%3E%3CmxCell%20id%3D%221%22%20parent%3D%220%22%2F%3E%3CmxCell%20id%3D%222%22%20value%3D%22%26lt%3Bb%26gt%3BDOG%26lt%3B%2Fb%26gt%3B%22%20style%3D%22whiteSpace%3Dwrap%3Bhtml%3D1%3Balign%3Dcenter%3Bshadow%3D0%3BstrokeColor%3D%23666666%3BstrokeWidth%3D1%3BfillColor%3D%23E3E3E3%3B%22%20vertex%3D%221%22%20parent%3D%221%22%3E%3CmxGeometry%20x%3D%22780%22%20y%3D%22500%22%20width%3D%22100%22%20height%3D%2240%22%20as%3D%22geometry%22%2F%3E%3C%2FmxCell%3E%3C%2Froot%3E%3C%2FmxGraphModel%3E&lt;/span&gt;" style="whiteSpace=wrap;html=1;align=center;shadow=0;strokeColor=#666666;strokeWidth=1;fillColor=#E3E3E3;" parent="ympUBMgaRm9vFQZxo2nO-1" vertex="1">
          <mxGeometry x="460" y="476" width="120" height="40" as="geometry" />
        </mxCell>
        <mxCell id="ympUBMgaRm9vFQZxo2nO-57" value="&lt;b&gt;VENDOR&lt;/b&gt;" style="whiteSpace=wrap;html=1;align=center;shadow=0;strokeColor=#666666;strokeWidth=1;fillColor=#E3E3E3;" parent="ympUBMgaRm9vFQZxo2nO-1" vertex="1">
          <mxGeometry x="460" y="340" width="120" height="40" as="geometry" />
        </mxCell>
        <mxCell id="ympUBMgaRm9vFQZxo2nO-58" style="edgeStyle=none;rounded=0;sketch=0;jumpStyle=none;orthogonalLoop=1;jettySize=auto;html=1;exitX=1;exitY=0.5;exitDx=0;exitDy=0;fontSize=23;startArrow=none;startFill=0;endArrow=none;endFill=0;strokeWidth=1;align=center;verticalAlign=middle;" parent="ympUBMgaRm9vFQZxo2nO-1" source="ympUBMgaRm9vFQZxo2nO-59" target="ympUBMgaRm9vFQZxo2nO-56" edge="1">
          <mxGeometry relative="1" as="geometry" />
        </mxCell>
        <mxCell id="ympUBMgaRm9vFQZxo2nO-59" value="Name" style="ellipse;whiteSpace=wrap;html=1;align=center;fontStyle=4;shadow=0;strokeColor=#666666;strokeWidth=1;fillColor=#FFFFFF;" parent="ympUBMgaRm9vFQZxo2nO-1" vertex="1">
          <mxGeometry x="341.01" y="476" width="100" height="40" as="geometry" />
        </mxCell>
        <mxCell id="ympUBMgaRm9vFQZxo2nO-72" value="&lt;b&gt;HAS&lt;/b&gt;" style="shape=rhombus;perimeter=rhombusPerimeter;whiteSpace=wrap;html=1;align=center;shadow=0;strokeColor=#666666;strokeWidth=1;fillColor=#EEEEEE;" parent="ympUBMgaRm9vFQZxo2nO-1" vertex="1">
          <mxGeometry x="621.02" y="215" width="60" height="60" as="geometry" />
        </mxCell>
        <mxCell id="ympUBMgaRm9vFQZxo2nO-73" value="&lt;b&gt;HAS&lt;/b&gt;" style="shape=rhombus;perimeter=rhombusPerimeter;whiteSpace=wrap;html=1;align=center;shadow=0;strokeColor=#666666;strokeWidth=1;fillColor=#EEEEEE;" parent="ympUBMgaRm9vFQZxo2nO-1" vertex="1">
          <mxGeometry x="980" y="345" width="80" height="80" as="geometry" />
        </mxCell>
        <mxCell id="ympUBMgaRm9vFQZxo2nO-74" value="&lt;b&gt;HAS&lt;/b&gt;" style="shape=rhombus;perimeter=rhombusPerimeter;whiteSpace=wrap;html=1;align=center;shadow=0;strokeColor=#666666;strokeWidth=1;fillColor=#EEEEEE;" parent="ympUBMgaRm9vFQZxo2nO-1" vertex="1">
          <mxGeometry x="750" y="240" width="60" height="60" as="geometry" />
        </mxCell>
        <mxCell id="ympUBMgaRm9vFQZxo2nO-75" value="&lt;b&gt;EXPENSE&lt;/b&gt;" style="shape=ext;margin=3;double=1;whiteSpace=wrap;html=1;align=center;shadow=0;strokeColor=#666666;strokeWidth=1;fillColor=#E3E3E3;" parent="ympUBMgaRm9vFQZxo2nO-1" vertex="1">
          <mxGeometry x="720.01" y="480" width="120" height="40" as="geometry" />
        </mxCell>
        <mxCell id="ympUBMgaRm9vFQZxo2nO-76" value="&lt;b&gt;HAS&lt;/b&gt;" style="shape=rhombus;double=1;perimeter=rhombusPerimeter;whiteSpace=wrap;html=1;align=center;shadow=0;strokeColor=#666666;strokeWidth=1;fillColor=#EEEEEE;" parent="ympUBMgaRm9vFQZxo2nO-1" vertex="1">
          <mxGeometry x="400" y="630" width="80" height="80" as="geometry" />
        </mxCell>
        <mxCell id="ympUBMgaRm9vFQZxo2nO-81" value="&lt;b&gt;HAS&lt;/b&gt;" style="shape=rhombus;perimeter=rhombusPerimeter;whiteSpace=wrap;html=1;align=center;shadow=0;strokeColor=#666666;strokeWidth=1;fillColor=#EEEEEE;" parent="ympUBMgaRm9vFQZxo2nO-1" vertex="1">
          <mxGeometry x="630" y="470" width="60" height="60" as="geometry" />
        </mxCell>
        <mxCell id="ympUBMgaRm9vFQZxo2nO-94" style="edgeStyle=none;rounded=0;sketch=0;jumpStyle=none;orthogonalLoop=1;jettySize=auto;html=1;fontSize=23;startArrow=none;startFill=0;endArrow=none;endFill=0;strokeWidth=1;align=center;verticalAlign=middle;entryX=0;entryY=0.5;entryDx=0;entryDy=0;exitX=1;exitY=0.5;exitDx=0;exitDy=0;" parent="ympUBMgaRm9vFQZxo2nO-1" source="ympUBMgaRm9vFQZxo2nO-95" target="ympUBMgaRm9vFQZxo2nO-57" edge="1">
          <mxGeometry relative="1" as="geometry">
            <mxPoint x="750" y="590" as="targetPoint" />
            <mxPoint x="750" y="610" as="sourcePoint" />
          </mxGeometry>
        </mxCell>
        <mxCell id="ympUBMgaRm9vFQZxo2nO-95" value="Name" style="ellipse;whiteSpace=wrap;html=1;align=center;fontStyle=4;shadow=0;strokeColor=#666666;strokeWidth=1;fillColor=#FFFFFF;" parent="ympUBMgaRm9vFQZxo2nO-1" vertex="1">
          <mxGeometry x="341.01" y="340" width="100" height="40" as="geometry" />
        </mxCell>
        <mxCell id="ympUBMgaRm9vFQZxo2nO-96" style="edgeStyle=none;rounded=0;sketch=0;jumpStyle=none;orthogonalLoop=1;jettySize=auto;html=1;exitX=0;exitY=0.5;exitDx=0;exitDy=0;fontSize=23;startArrow=none;startFill=0;endArrow=none;endFill=0;strokeWidth=1;align=center;verticalAlign=middle;entryX=1;entryY=0.5;entryDx=0;entryDy=0;" parent="ympUBMgaRm9vFQZxo2nO-1" source="ympUBMgaRm9vFQZxo2nO-54" target="ympUBMgaRm9vFQZxo2nO-97" edge="1">
          <mxGeometry relative="1" as="geometry">
            <mxPoint x="1300" y="265" as="targetPoint" />
          </mxGeometry>
        </mxCell>
        <mxCell id="ympUBMgaRm9vFQZxo2nO-97" value="Name" style="ellipse;whiteSpace=wrap;html=1;align=center;fontStyle=4;shadow=0;strokeColor=#666666;strokeWidth=1;fillColor=#FFFFFF;" parent="ympUBMgaRm9vFQZxo2nO-1" vertex="1">
          <mxGeometry x="341.01" y="225" width="100" height="40" as="geometry" />
        </mxCell>
        <mxCell id="ympUBMgaRm9vFQZxo2nO-102" value="MicrochipID" style="ellipse;whiteSpace=wrap;html=1;align=center;fontStyle=4;shadow=0;strokeColor=#666666;strokeWidth=1;fillColor=#FFFFFF;" parent="ympUBMgaRm9vFQZxo2nO-1" vertex="1">
          <mxGeometry x="730" y="400" width="100" height="40" as="geometry" />
        </mxCell>
        <mxCell id="ympUBMgaRm9vFQZxo2nO-103" value="" style="endArrow=none;html=1;rounded=0;fontSize=23;strokeWidth=1;align=center;verticalAlign=middle;exitX=0.5;exitY=1;exitDx=0;exitDy=0;entryX=0.5;entryY=0;entryDx=0;entryDy=0;" parent="ympUBMgaRm9vFQZxo2nO-1" source="ympUBMgaRm9vFQZxo2nO-55" target="ympUBMgaRm9vFQZxo2nO-102" edge="1">
          <mxGeometry relative="1" as="geometry">
            <mxPoint x="420" y="400" as="sourcePoint" />
            <mxPoint x="580" y="400" as="targetPoint" />
          </mxGeometry>
        </mxCell>
        <mxCell id="ympUBMgaRm9vFQZxo2nO-104" value="Name" style="ellipse;whiteSpace=wrap;html=1;align=center;shadow=0;strokeColor=#666666;strokeWidth=1;fillColor=#FFFFFF;" parent="ympUBMgaRm9vFQZxo2nO-1" vertex="1">
          <mxGeometry x="830" y="40" width="80" height="40" as="geometry" />
        </mxCell>
        <mxCell id="ympUBMgaRm9vFQZxo2nO-106" value="Sex" style="ellipse;whiteSpace=wrap;html=1;align=center;shadow=0;strokeColor=#666666;strokeWidth=1;fillColor=#FFFFFF;" parent="ympUBMgaRm9vFQZxo2nO-1" vertex="1">
          <mxGeometry x="740.01" y="40" width="80" height="40" as="geometry" />
        </mxCell>
        <mxCell id="ympUBMgaRm9vFQZxo2nO-107" value="Altered" style="ellipse;whiteSpace=wrap;html=1;align=center;shadow=0;strokeColor=#666666;strokeWidth=1;fillColor=#FFFFFF;" parent="ympUBMgaRm9vFQZxo2nO-1" vertex="1">
          <mxGeometry x="650" y="40" width="80" height="40" as="geometry" />
        </mxCell>
        <mxCell id="ympUBMgaRm9vFQZxo2nO-108" value="Description" style="ellipse;whiteSpace=wrap;html=1;align=center;shadow=0;strokeColor=#666666;strokeWidth=1;fillColor=#FFFFFF;" parent="ympUBMgaRm9vFQZxo2nO-1" vertex="1">
          <mxGeometry x="561.01" y="40" width="80" height="40" as="geometry" />
        </mxCell>
        <mxCell id="ympUBMgaRm9vFQZxo2nO-109" value="SurrenderDate" style="ellipse;whiteSpace=wrap;html=1;align=center;shadow=0;strokeColor=#666666;strokeWidth=1;fillColor=#FFFFFF;fontSize=12;" parent="ympUBMgaRm9vFQZxo2nO-1" vertex="1">
          <mxGeometry x="930" y="40" width="120" height="40" as="geometry" />
        </mxCell>
        <mxCell id="ympUBMgaRm9vFQZxo2nO-110" value="SurrenderPhone" style="ellipse;whiteSpace=wrap;html=1;align=center;shadow=0;strokeColor=#666666;strokeWidth=1;fillColor=#FFFFFF;fontSize=12;" parent="ympUBMgaRm9vFQZxo2nO-1" vertex="1">
          <mxGeometry x="930" y="95" width="120" height="40" as="geometry" />
        </mxCell>
        <mxCell id="ympUBMgaRm9vFQZxo2nO-111" value="ByAnimalControl" style="ellipse;whiteSpace=wrap;html=1;align=center;shadow=0;strokeColor=#666666;strokeWidth=1;fillColor=#FFFFFF;fontSize=12;" parent="ympUBMgaRm9vFQZxo2nO-1" vertex="1">
          <mxGeometry x="930" y="150" width="120" height="40" as="geometry" />
        </mxCell>
        <mxCell id="vB9U4bPo17kNobg1gXTB-8" value="" style="endArrow=none;html=1;rounded=0;exitX=1;exitY=0.5;exitDx=0;exitDy=0;entryX=0;entryY=0.5;entryDx=0;entryDy=0;shape=link;" parent="ympUBMgaRm9vFQZxo2nO-1" source="ympUBMgaRm9vFQZxo2nO-29" target="ympUBMgaRm9vFQZxo2nO-43" edge="1">
          <mxGeometry width="50" height="50" relative="1" as="geometry">
            <mxPoint x="160" y="295" as="sourcePoint" />
            <mxPoint x="210" y="245" as="targetPoint" />
          </mxGeometry>
        </mxCell>
        <mxCell id="vB9U4bPo17kNobg1gXTB-9" value="" style="endArrow=none;html=1;rounded=0;exitX=0.5;exitY=0;exitDx=0;exitDy=0;entryX=1;entryY=0.5;entryDx=0;entryDy=0;" parent="ympUBMgaRm9vFQZxo2nO-1" source="ympUBMgaRm9vFQZxo2nO-43" target="ReveWXHtMEPwcWJytBVd-0" edge="1">
          <mxGeometry width="50" height="50" relative="1" as="geometry">
            <mxPoint x="350" y="290" as="sourcePoint" />
            <mxPoint x="240" y="220" as="targetPoint" />
            <Array as="points">
              <mxPoint x="300" y="220" />
            </Array>
          </mxGeometry>
        </mxCell>
        <mxCell id="vB9U4bPo17kNobg1gXTB-14" value="" style="endArrow=none;html=1;rounded=0;entryX=0.5;entryY=1;entryDx=0;entryDy=0;exitX=0.5;exitY=0;exitDx=0;exitDy=0;" parent="ympUBMgaRm9vFQZxo2nO-1" source="b25L0IEwAaMC9seaVLFK-4" target="ympUBMgaRm9vFQZxo2nO-43" edge="1">
          <mxGeometry width="50" height="50" relative="1" as="geometry">
            <mxPoint x="300.5" y="605" as="sourcePoint" />
            <mxPoint x="300" y="405" as="targetPoint" />
          </mxGeometry>
        </mxCell>
        <mxCell id="vB9U4bPo17kNobg1gXTB-17" value="" style="endArrow=none;html=1;rounded=0;entryX=0;entryY=1;entryDx=0;entryDy=0;exitX=0.75;exitY=0;exitDx=0;exitDy=0;" parent="ympUBMgaRm9vFQZxo2nO-1" source="ympUBMgaRm9vFQZxo2nO-53" target="ympUBMgaRm9vFQZxo2nO-104" edge="1">
          <mxGeometry width="50" height="50" relative="1" as="geometry">
            <mxPoint x="640" y="195" as="sourcePoint" />
            <mxPoint x="690" y="145" as="targetPoint" />
          </mxGeometry>
        </mxCell>
        <mxCell id="vB9U4bPo17kNobg1gXTB-18" value="" style="endArrow=none;html=1;rounded=0;entryX=0.5;entryY=1;entryDx=0;entryDy=0;exitX=0.5;exitY=0;exitDx=0;exitDy=0;" parent="ympUBMgaRm9vFQZxo2nO-1" source="ympUBMgaRm9vFQZxo2nO-53" target="ympUBMgaRm9vFQZxo2nO-106" edge="1">
          <mxGeometry width="50" height="50" relative="1" as="geometry">
            <mxPoint x="620" y="215" as="sourcePoint" />
            <mxPoint x="670" y="165" as="targetPoint" />
          </mxGeometry>
        </mxCell>
        <mxCell id="vB9U4bPo17kNobg1gXTB-19" value="" style="endArrow=none;html=1;rounded=0;entryX=0.25;entryY=0;entryDx=0;entryDy=0;exitX=1;exitY=1;exitDx=0;exitDy=0;" parent="ympUBMgaRm9vFQZxo2nO-1" source="ympUBMgaRm9vFQZxo2nO-107" target="ympUBMgaRm9vFQZxo2nO-53" edge="1">
          <mxGeometry width="50" height="50" relative="1" as="geometry">
            <mxPoint x="690" y="265" as="sourcePoint" />
            <mxPoint x="740" y="215" as="targetPoint" />
          </mxGeometry>
        </mxCell>
        <mxCell id="vB9U4bPo17kNobg1gXTB-20" value="" style="endArrow=none;html=1;rounded=0;entryX=0;entryY=0;entryDx=0;entryDy=0;exitX=1;exitY=1;exitDx=0;exitDy=0;" parent="ympUBMgaRm9vFQZxo2nO-1" source="ympUBMgaRm9vFQZxo2nO-108" target="ympUBMgaRm9vFQZxo2nO-53" edge="1">
          <mxGeometry width="50" height="50" relative="1" as="geometry">
            <mxPoint x="690" y="130" as="sourcePoint" />
            <mxPoint x="810" y="185" as="targetPoint" />
          </mxGeometry>
        </mxCell>
        <mxCell id="vB9U4bPo17kNobg1gXTB-21" value="" style="endArrow=none;html=1;rounded=0;exitX=0;exitY=0.5;exitDx=0;exitDy=0;entryX=1;entryY=0.25;entryDx=0;entryDy=0;" parent="ympUBMgaRm9vFQZxo2nO-1" source="ympUBMgaRm9vFQZxo2nO-109" target="ympUBMgaRm9vFQZxo2nO-53" edge="1">
          <mxGeometry width="50" height="50" relative="1" as="geometry">
            <mxPoint x="730" y="215" as="sourcePoint" />
            <mxPoint x="810" y="175" as="targetPoint" />
          </mxGeometry>
        </mxCell>
        <mxCell id="kdwBY_G7bhKLpQpaAvqd-0" value="" style="endArrow=none;html=1;rounded=0;strokeWidth=1;exitX=1;exitY=0.5;exitDx=0;exitDy=0;entryX=0;entryY=0.5;entryDx=0;entryDy=0;" parent="ympUBMgaRm9vFQZxo2nO-1" source="b25L0IEwAaMC9seaVLFK-18" target="yz8rhdaDb1qIB_dm_TD1-5" edge="1">
          <mxGeometry relative="1" as="geometry">
            <mxPoint x="360.00000000000045" y="625" as="sourcePoint" />
            <mxPoint x="410" y="145" as="targetPoint" />
            <Array as="points">
              <mxPoint x="380" y="145" />
            </Array>
          </mxGeometry>
        </mxCell>
        <mxCell id="kdwBY_G7bhKLpQpaAvqd-1" value="1" style="resizable=0;html=1;align=right;verticalAlign=bottom;" parent="kdwBY_G7bhKLpQpaAvqd-0" connectable="0" vertex="1">
          <mxGeometry x="1" relative="1" as="geometry" />
        </mxCell>
        <mxCell id="b25L0IEwAaMC9seaVLFK-0" value="" style="endArrow=none;html=1;rounded=0;strokeWidth=1;align=center;fontStyle=0;entryX=1;entryY=0.5;entryDx=0;entryDy=0;exitX=0;exitY=0.5;exitDx=0;exitDy=0;shape=link;" parent="ympUBMgaRm9vFQZxo2nO-1" source="ympUBMgaRm9vFQZxo2nO-53" target="yz8rhdaDb1qIB_dm_TD1-5" edge="1">
          <mxGeometry relative="1" as="geometry">
            <mxPoint x="789" y="-45" as="sourcePoint" />
            <mxPoint x="530" y="145" as="targetPoint" />
          </mxGeometry>
        </mxCell>
        <mxCell id="b25L0IEwAaMC9seaVLFK-1" value="N" style="resizable=0;html=1;align=right;verticalAlign=bottom;spacingRight=-10;spacingLeft=0;" parent="b25L0IEwAaMC9seaVLFK-0" connectable="0" vertex="1">
          <mxGeometry x="1" relative="1" as="geometry">
            <mxPoint as="offset" />
          </mxGeometry>
        </mxCell>
        <mxCell id="b25L0IEwAaMC9seaVLFK-2" value="" style="endArrow=none;html=1;rounded=0;exitX=0;exitY=0.5;exitDx=0;exitDy=0;entryX=1;entryY=0.5;entryDx=0;entryDy=0;" parent="ympUBMgaRm9vFQZxo2nO-1" source="ympUBMgaRm9vFQZxo2nO-110" target="ympUBMgaRm9vFQZxo2nO-53" edge="1">
          <mxGeometry width="50" height="50" relative="1" as="geometry">
            <mxPoint x="870" y="205" as="sourcePoint" />
            <mxPoint x="850" y="190" as="targetPoint" />
          </mxGeometry>
        </mxCell>
        <mxCell id="b25L0IEwAaMC9seaVLFK-3" value="" style="endArrow=none;html=1;rounded=0;exitX=0;exitY=0.5;exitDx=0;exitDy=0;entryX=1;entryY=0.75;entryDx=0;entryDy=0;" parent="ympUBMgaRm9vFQZxo2nO-1" source="ympUBMgaRm9vFQZxo2nO-111" target="ympUBMgaRm9vFQZxo2nO-53" edge="1">
          <mxGeometry width="50" height="50" relative="1" as="geometry">
            <mxPoint x="790" y="345" as="sourcePoint" />
            <mxPoint x="940" y="130" as="targetPoint" />
          </mxGeometry>
        </mxCell>
        <mxCell id="b25L0IEwAaMC9seaVLFK-4" value="&lt;b&gt;ADOPTER&lt;/b&gt;" style="whiteSpace=wrap;html=1;align=center;shadow=0;strokeColor=#666666;strokeWidth=1;fillColor=#E3E3E3;" parent="ympUBMgaRm9vFQZxo2nO-1" vertex="1">
          <mxGeometry x="240" y="650" width="120" height="40" as="geometry" />
        </mxCell>
        <mxCell id="b25L0IEwAaMC9seaVLFK-5" value="Street" style="ellipse;whiteSpace=wrap;html=1;align=center;shadow=0;strokeColor=#666666;strokeWidth=1;fillColor=#FFFFFF;" parent="ympUBMgaRm9vFQZxo2nO-1" vertex="1">
          <mxGeometry x="140" y="580" width="80" height="40" as="geometry" />
        </mxCell>
        <mxCell id="b25L0IEwAaMC9seaVLFK-6" value="City" style="ellipse;whiteSpace=wrap;html=1;align=center;shadow=0;strokeColor=#666666;strokeWidth=1;fillColor=#FFFFFF;" parent="ympUBMgaRm9vFQZxo2nO-1" vertex="1">
          <mxGeometry x="60" y="600" width="80" height="40" as="geometry" />
        </mxCell>
        <mxCell id="b25L0IEwAaMC9seaVLFK-7" value="State" style="ellipse;whiteSpace=wrap;html=1;align=center;shadow=0;strokeColor=#666666;strokeWidth=1;fillColor=#FFFFFF;" parent="ympUBMgaRm9vFQZxo2nO-1" vertex="1">
          <mxGeometry x="30" y="650" width="80" height="40" as="geometry" />
        </mxCell>
        <mxCell id="b25L0IEwAaMC9seaVLFK-8" value="Zip" style="ellipse;whiteSpace=wrap;html=1;align=center;shadow=0;strokeColor=#666666;strokeWidth=1;fillColor=#FFFFFF;" parent="ympUBMgaRm9vFQZxo2nO-1" vertex="1">
          <mxGeometry x="60" y="700.0000000000001" width="80" height="40" as="geometry" />
        </mxCell>
        <mxCell id="b25L0IEwAaMC9seaVLFK-9" value="Address" style="ellipse;whiteSpace=wrap;html=1;align=center;shadow=0;strokeColor=#666666;strokeWidth=1;fillColor=#FFFFFF;" parent="ympUBMgaRm9vFQZxo2nO-1" vertex="1">
          <mxGeometry x="140" y="650" width="80" height="40" as="geometry" />
        </mxCell>
        <mxCell id="b25L0IEwAaMC9seaVLFK-10" value="Household" style="ellipse;whiteSpace=wrap;html=1;align=center;shadow=0;strokeColor=#666666;strokeWidth=1;fillColor=#FFFFFF;" parent="ympUBMgaRm9vFQZxo2nO-1" vertex="1">
          <mxGeometry x="260" y="710" width="80" height="40" as="geometry" />
        </mxCell>
        <mxCell id="b25L0IEwAaMC9seaVLFK-11" value="" style="endArrow=none;html=1;strokeWidth=1;entryX=0.5;entryY=0;entryDx=0;entryDy=0;exitX=0.5;exitY=1;exitDx=0;exitDy=0;" parent="ympUBMgaRm9vFQZxo2nO-1" source="b25L0IEwAaMC9seaVLFK-5" target="b25L0IEwAaMC9seaVLFK-9" edge="1">
          <mxGeometry width="50" height="50" relative="1" as="geometry">
            <mxPoint x="259" y="640" as="sourcePoint" />
            <mxPoint x="309" y="590" as="targetPoint" />
          </mxGeometry>
        </mxCell>
        <mxCell id="b25L0IEwAaMC9seaVLFK-12" value="" style="endArrow=none;html=1;strokeWidth=1;exitX=1;exitY=1;exitDx=0;exitDy=0;entryX=0;entryY=0;entryDx=0;entryDy=0;" parent="ympUBMgaRm9vFQZxo2nO-1" source="b25L0IEwAaMC9seaVLFK-6" target="b25L0IEwAaMC9seaVLFK-9" edge="1">
          <mxGeometry width="50" height="50" relative="1" as="geometry">
            <mxPoint x="259" y="720.0000000000001" as="sourcePoint" />
            <mxPoint x="329" y="770.0000000000001" as="targetPoint" />
          </mxGeometry>
        </mxCell>
        <mxCell id="b25L0IEwAaMC9seaVLFK-13" value="" style="endArrow=none;html=1;strokeWidth=1;exitX=1;exitY=0.5;exitDx=0;exitDy=0;entryX=0;entryY=0.5;entryDx=0;entryDy=0;" parent="ympUBMgaRm9vFQZxo2nO-1" source="b25L0IEwAaMC9seaVLFK-7" target="b25L0IEwAaMC9seaVLFK-9" edge="1">
          <mxGeometry width="50" height="50" relative="1" as="geometry">
            <mxPoint x="259" y="620" as="sourcePoint" />
            <mxPoint x="329" y="670.0000000000001" as="targetPoint" />
          </mxGeometry>
        </mxCell>
        <mxCell id="b25L0IEwAaMC9seaVLFK-14" value="" style="endArrow=none;html=1;strokeWidth=1;exitX=1;exitY=0;exitDx=0;exitDy=0;entryX=0;entryY=1;entryDx=0;entryDy=0;" parent="ympUBMgaRm9vFQZxo2nO-1" source="b25L0IEwAaMC9seaVLFK-8" target="b25L0IEwAaMC9seaVLFK-9" edge="1">
          <mxGeometry width="50" height="50" relative="1" as="geometry">
            <mxPoint x="269" y="630" as="sourcePoint" />
            <mxPoint x="339" y="680.0000000000001" as="targetPoint" />
          </mxGeometry>
        </mxCell>
        <mxCell id="b25L0IEwAaMC9seaVLFK-15" style="edgeStyle=none;shape=link;rounded=0;sketch=0;jumpStyle=none;orthogonalLoop=1;jettySize=auto;html=1;exitX=0.5;exitY=1;exitDx=0;exitDy=0;startArrow=none;startFill=0;endArrow=none;endFill=0;strokeWidth=1;" parent="ympUBMgaRm9vFQZxo2nO-1" source="b25L0IEwAaMC9seaVLFK-8" target="b25L0IEwAaMC9seaVLFK-8" edge="1">
          <mxGeometry relative="1" as="geometry" />
        </mxCell>
        <mxCell id="b25L0IEwAaMC9seaVLFK-16" value="" style="endArrow=none;html=1;rounded=0;entryX=0;entryY=0.5;entryDx=0;entryDy=0;exitX=1;exitY=0.5;exitDx=0;exitDy=0;" parent="ympUBMgaRm9vFQZxo2nO-1" source="b25L0IEwAaMC9seaVLFK-9" target="b25L0IEwAaMC9seaVLFK-4" edge="1">
          <mxGeometry width="50" height="50" relative="1" as="geometry">
            <mxPoint y="810.0000000000001" as="sourcePoint" />
            <mxPoint x="50" y="760.0000000000001" as="targetPoint" />
          </mxGeometry>
        </mxCell>
        <mxCell id="b25L0IEwAaMC9seaVLFK-17" value="" style="endArrow=none;html=1;rounded=0;entryX=0.5;entryY=0;entryDx=0;entryDy=0;exitX=0.5;exitY=1;exitDx=0;exitDy=0;" parent="ympUBMgaRm9vFQZxo2nO-1" source="b25L0IEwAaMC9seaVLFK-4" target="b25L0IEwAaMC9seaVLFK-10" edge="1">
          <mxGeometry width="50" height="50" relative="1" as="geometry">
            <mxPoint y="810.0000000000001" as="sourcePoint" />
            <mxPoint x="50" y="760.0000000000001" as="targetPoint" />
          </mxGeometry>
        </mxCell>
        <mxCell id="b25L0IEwAaMC9seaVLFK-18" value="&lt;b&gt;USER&lt;/b&gt;" style="whiteSpace=wrap;html=1;align=center;shadow=0;strokeColor=#666666;strokeWidth=1;fillColor=#E3E3E3;" parent="ympUBMgaRm9vFQZxo2nO-1" vertex="1">
          <mxGeometry x="121" y="125" width="119" height="40" as="geometry" />
        </mxCell>
        <mxCell id="b25L0IEwAaMC9seaVLFK-23" value="" style="endArrow=none;html=1;strokeWidth=1;exitX=1;exitY=0.5;exitDx=0;exitDy=0;entryX=0;entryY=0.5;entryDx=0;entryDy=0;" parent="ympUBMgaRm9vFQZxo2nO-1" source="b25L0IEwAaMC9seaVLFK-24" target="ReveWXHtMEPwcWJytBVd-2" edge="1">
          <mxGeometry width="50" height="50" relative="1" as="geometry">
            <mxPoint x="350" y="245" as="sourcePoint" />
            <mxPoint x="120" y="340" as="targetPoint" />
          </mxGeometry>
        </mxCell>
        <mxCell id="b25L0IEwAaMC9seaVLFK-24" value="BirthDate" style="ellipse;whiteSpace=wrap;html=1;align=center;shadow=0;strokeColor=#666666;strokeWidth=1;fillColor=#FFFFFF;" parent="ympUBMgaRm9vFQZxo2nO-1" vertex="1">
          <mxGeometry x="10" y="330" width="80" height="40" as="geometry" />
        </mxCell>
        <mxCell id="b25L0IEwAaMC9seaVLFK-25" value="" style="endArrow=none;html=1;rounded=0;strokeWidth=1;entryX=1;entryY=0.5;entryDx=0;entryDy=0;shape=link;exitX=0.25;exitY=1;exitDx=0;exitDy=0;" parent="ympUBMgaRm9vFQZxo2nO-1" source="ympUBMgaRm9vFQZxo2nO-53" target="ympUBMgaRm9vFQZxo2nO-72" edge="1">
          <mxGeometry relative="1" as="geometry">
            <mxPoint x="700" y="194.66" as="sourcePoint" />
            <mxPoint x="781" y="194.66" as="targetPoint" />
            <Array as="points" />
          </mxGeometry>
        </mxCell>
        <mxCell id="b25L0IEwAaMC9seaVLFK-26" value="M" style="resizable=0;html=1;align=right;verticalAlign=bottom;" parent="b25L0IEwAaMC9seaVLFK-25" connectable="0" vertex="1">
          <mxGeometry x="1" relative="1" as="geometry">
            <mxPoint x="6" y="-5" as="offset" />
          </mxGeometry>
        </mxCell>
        <mxCell id="b25L0IEwAaMC9seaVLFK-27" value="" style="endArrow=none;html=1;rounded=0;strokeWidth=1;align=center;fontStyle=0;entryX=0;entryY=0.5;entryDx=0;entryDy=0;exitX=1;exitY=0.5;exitDx=0;exitDy=0;" parent="ympUBMgaRm9vFQZxo2nO-1" source="ympUBMgaRm9vFQZxo2nO-54" target="ympUBMgaRm9vFQZxo2nO-72" edge="1">
          <mxGeometry relative="1" as="geometry">
            <mxPoint x="760" y="359.31" as="sourcePoint" />
            <mxPoint x="600" y="359.31" as="targetPoint" />
          </mxGeometry>
        </mxCell>
        <mxCell id="b25L0IEwAaMC9seaVLFK-28" value="N" style="resizable=0;html=1;align=right;verticalAlign=bottom;spacingRight=-10;spacingLeft=0;" parent="b25L0IEwAaMC9seaVLFK-27" connectable="0" vertex="1">
          <mxGeometry x="1" relative="1" as="geometry">
            <mxPoint x="-10" as="offset" />
          </mxGeometry>
        </mxCell>
        <mxCell id="b25L0IEwAaMC9seaVLFK-33" value="" style="endArrow=none;html=1;rounded=0;strokeWidth=1;align=center;fontStyle=0;exitX=1;exitY=0.5;exitDx=0;exitDy=0;entryX=0;entryY=0.5;entryDx=0;entryDy=0;" parent="ympUBMgaRm9vFQZxo2nO-1" source="ympUBMgaRm9vFQZxo2nO-57" target="b25L0IEwAaMC9seaVLFK-38" edge="1">
          <mxGeometry relative="1" as="geometry">
            <mxPoint x="610" y="270" as="sourcePoint" />
            <mxPoint x="590" y="430" as="targetPoint" />
          </mxGeometry>
        </mxCell>
        <mxCell id="b25L0IEwAaMC9seaVLFK-34" value="1" style="resizable=0;html=1;align=right;verticalAlign=bottom;spacingRight=-10;spacingLeft=0;" parent="b25L0IEwAaMC9seaVLFK-33" connectable="0" vertex="1">
          <mxGeometry x="1" relative="1" as="geometry">
            <mxPoint x="-10" as="offset" />
          </mxGeometry>
        </mxCell>
        <mxCell id="b25L0IEwAaMC9seaVLFK-36" value="" style="endArrow=none;html=1;rounded=0;strokeWidth=1;exitX=0.5;exitY=1;exitDx=0;exitDy=0;entryX=0.5;entryY=0;entryDx=0;entryDy=0;" parent="ympUBMgaRm9vFQZxo2nO-1" source="ympUBMgaRm9vFQZxo2nO-53" target="ympUBMgaRm9vFQZxo2nO-74" edge="1">
          <mxGeometry relative="1" as="geometry">
            <mxPoint x="760" y="175" as="sourcePoint" />
            <mxPoint x="700" y="270" as="targetPoint" />
            <Array as="points" />
          </mxGeometry>
        </mxCell>
        <mxCell id="b25L0IEwAaMC9seaVLFK-37" value="1" style="resizable=0;html=1;align=right;verticalAlign=bottom;" parent="b25L0IEwAaMC9seaVLFK-36" connectable="0" vertex="1">
          <mxGeometry x="1" relative="1" as="geometry">
            <mxPoint as="offset" />
          </mxGeometry>
        </mxCell>
        <mxCell id="b25L0IEwAaMC9seaVLFK-38" value="&lt;b&gt;HAS&lt;/b&gt;" style="shape=rhombus;perimeter=rhombusPerimeter;whiteSpace=wrap;html=1;align=center;shadow=0;strokeColor=#666666;strokeWidth=1;fillColor=#EEEEEE;" parent="ympUBMgaRm9vFQZxo2nO-1" vertex="1">
          <mxGeometry x="620" y="330" width="60" height="60" as="geometry" />
        </mxCell>
        <mxCell id="b25L0IEwAaMC9seaVLFK-39" value="" style="endArrow=none;html=1;rounded=0;strokeWidth=1;exitX=0;exitY=0.5;exitDx=0;exitDy=0;entryX=1;entryY=0.5;entryDx=0;entryDy=0;shape=link;" parent="ympUBMgaRm9vFQZxo2nO-1" source="ympUBMgaRm9vFQZxo2nO-55" target="b25L0IEwAaMC9seaVLFK-38" edge="1">
          <mxGeometry relative="1" as="geometry">
            <mxPoint x="660" y="240" as="sourcePoint" />
            <mxPoint x="580" y="345" as="targetPoint" />
            <Array as="points">
              <mxPoint x="700" y="360" />
            </Array>
          </mxGeometry>
        </mxCell>
        <mxCell id="b25L0IEwAaMC9seaVLFK-40" value="N" style="resizable=0;html=1;align=right;verticalAlign=bottom;" parent="b25L0IEwAaMC9seaVLFK-39" connectable="0" vertex="1">
          <mxGeometry x="1" relative="1" as="geometry">
            <mxPoint x="10" as="offset" />
          </mxGeometry>
        </mxCell>
        <mxCell id="b25L0IEwAaMC9seaVLFK-41" value="" style="endArrow=none;html=1;rounded=0;strokeWidth=1;exitX=0.5;exitY=1;exitDx=0;exitDy=0;entryX=0.5;entryY=0;entryDx=0;entryDy=0;" parent="ympUBMgaRm9vFQZxo2nO-1" source="ympUBMgaRm9vFQZxo2nO-74" target="ympUBMgaRm9vFQZxo2nO-55" edge="1">
          <mxGeometry relative="1" as="geometry">
            <mxPoint x="790" y="175" as="sourcePoint" />
            <mxPoint x="790" y="245" as="targetPoint" />
            <Array as="points" />
          </mxGeometry>
        </mxCell>
        <mxCell id="b25L0IEwAaMC9seaVLFK-42" value="1" style="resizable=0;html=1;align=right;verticalAlign=bottom;" parent="b25L0IEwAaMC9seaVLFK-41" connectable="0" vertex="1">
          <mxGeometry x="1" relative="1" as="geometry">
            <mxPoint y="-20" as="offset" />
          </mxGeometry>
        </mxCell>
        <mxCell id="b25L0IEwAaMC9seaVLFK-43" value="" style="endArrow=none;html=1;rounded=0;strokeWidth=1;exitX=0.75;exitY=1;exitDx=0;exitDy=0;entryX=0.5;entryY=0;entryDx=0;entryDy=0;" parent="ympUBMgaRm9vFQZxo2nO-1" source="ympUBMgaRm9vFQZxo2nO-53" target="ympUBMgaRm9vFQZxo2nO-19" edge="1">
          <mxGeometry relative="1" as="geometry">
            <mxPoint x="800" y="185" as="sourcePoint" />
            <mxPoint x="870" y="230" as="targetPoint" />
            <Array as="points" />
          </mxGeometry>
        </mxCell>
        <mxCell id="b25L0IEwAaMC9seaVLFK-44" value="1" style="resizable=0;html=1;align=right;verticalAlign=bottom;" parent="b25L0IEwAaMC9seaVLFK-43" connectable="0" vertex="1">
          <mxGeometry x="1" relative="1" as="geometry">
            <mxPoint x="-10" y="10" as="offset" />
          </mxGeometry>
        </mxCell>
        <mxCell id="b25L0IEwAaMC9seaVLFK-45" value="Amount" style="ellipse;whiteSpace=wrap;html=1;align=center;shadow=0;strokeColor=#666666;strokeWidth=1;fillColor=#FFFFFF;" parent="ympUBMgaRm9vFQZxo2nO-1" vertex="1">
          <mxGeometry x="690" y="540" width="80" height="40" as="geometry" />
        </mxCell>
        <mxCell id="b25L0IEwAaMC9seaVLFK-46" value="" style="endArrow=none;html=1;rounded=0;strokeWidth=1;entryX=0.5;entryY=1;entryDx=0;entryDy=0;shape=link;exitX=1;exitY=0.5;exitDx=0;exitDy=0;" parent="ympUBMgaRm9vFQZxo2nO-1" source="ympUBMgaRm9vFQZxo2nO-75" target="ympUBMgaRm9vFQZxo2nO-19" edge="1">
          <mxGeometry relative="1" as="geometry">
            <mxPoint x="900" y="360" as="sourcePoint" />
            <mxPoint x="870" y="290" as="targetPoint" />
            <Array as="points">
              <mxPoint x="860" y="500" />
            </Array>
          </mxGeometry>
        </mxCell>
        <mxCell id="b25L0IEwAaMC9seaVLFK-47" value="N" style="resizable=0;html=1;align=right;verticalAlign=bottom;" parent="b25L0IEwAaMC9seaVLFK-46" connectable="0" vertex="1">
          <mxGeometry x="1" relative="1" as="geometry">
            <mxPoint x="20" y="10" as="offset" />
          </mxGeometry>
        </mxCell>
        <mxCell id="b25L0IEwAaMC9seaVLFK-48" value="" style="endArrow=none;html=1;rounded=0;strokeWidth=1;align=center;fontStyle=0;exitX=1.013;exitY=0.595;exitDx=0;exitDy=0;entryX=0;entryY=0.5;entryDx=0;entryDy=0;exitPerimeter=0;" parent="ympUBMgaRm9vFQZxo2nO-1" source="ympUBMgaRm9vFQZxo2nO-56" target="ympUBMgaRm9vFQZxo2nO-81" edge="1">
          <mxGeometry relative="1" as="geometry">
            <mxPoint x="600" y="499.76" as="sourcePoint" />
            <mxPoint x="630" y="499.76" as="targetPoint" />
          </mxGeometry>
        </mxCell>
        <mxCell id="b25L0IEwAaMC9seaVLFK-49" value="1" style="resizable=0;html=1;align=right;verticalAlign=bottom;spacingRight=-10;spacingLeft=0;" parent="b25L0IEwAaMC9seaVLFK-48" connectable="0" vertex="1">
          <mxGeometry x="1" relative="1" as="geometry">
            <mxPoint x="-10" as="offset" />
          </mxGeometry>
        </mxCell>
        <mxCell id="b25L0IEwAaMC9seaVLFK-50" value="" style="endArrow=none;html=1;rounded=0;strokeWidth=1;exitX=0;exitY=0.5;exitDx=0;exitDy=0;entryX=1;entryY=0.5;entryDx=0;entryDy=0;shape=link;" parent="ympUBMgaRm9vFQZxo2nO-1" source="ympUBMgaRm9vFQZxo2nO-75" target="ympUBMgaRm9vFQZxo2nO-81" edge="1">
          <mxGeometry relative="1" as="geometry">
            <mxPoint x="720" y="499.76" as="sourcePoint" />
            <mxPoint x="690" y="499.76" as="targetPoint" />
            <Array as="points">
              <mxPoint x="700" y="499.76" />
            </Array>
          </mxGeometry>
        </mxCell>
        <mxCell id="b25L0IEwAaMC9seaVLFK-51" value="1" style="resizable=0;html=1;align=right;verticalAlign=bottom;" parent="b25L0IEwAaMC9seaVLFK-50" connectable="0" vertex="1">
          <mxGeometry x="1" relative="1" as="geometry">
            <mxPoint x="10" as="offset" />
          </mxGeometry>
        </mxCell>
        <mxCell id="b25L0IEwAaMC9seaVLFK-52" value="Vendor" style="ellipse;whiteSpace=wrap;html=1;align=center;shadow=0;strokeColor=#666666;strokeWidth=1;fillColor=#FFFFFF;" parent="ympUBMgaRm9vFQZxo2nO-1" vertex="1">
          <mxGeometry x="740.01" y="590" width="80" height="40" as="geometry" />
        </mxCell>
        <mxCell id="b25L0IEwAaMC9seaVLFK-53" value="Date" style="ellipse;whiteSpace=wrap;html=1;align=center;shadow=0;strokeColor=#666666;strokeWidth=1;fillColor=#FFFFFF;" parent="ympUBMgaRm9vFQZxo2nO-1" vertex="1">
          <mxGeometry x="840.01" y="590" width="80" height="40" as="geometry" />
        </mxCell>
        <mxCell id="b25L0IEwAaMC9seaVLFK-54" value="&lt;span style=&quot;border-bottom: 1px dotted&quot;&gt;VendorDate&lt;/span&gt;" style="ellipse;whiteSpace=wrap;html=1;align=center;" parent="ympUBMgaRm9vFQZxo2nO-1" vertex="1">
          <mxGeometry x="780" y="540" width="80" height="40" as="geometry" />
        </mxCell>
        <mxCell id="b25L0IEwAaMC9seaVLFK-56" value="" style="endArrow=none;html=1;rounded=0;entryX=0.25;entryY=1;entryDx=0;entryDy=0;exitX=0.5;exitY=0;exitDx=0;exitDy=0;" parent="ympUBMgaRm9vFQZxo2nO-1" source="b25L0IEwAaMC9seaVLFK-45" target="ympUBMgaRm9vFQZxo2nO-75" edge="1">
          <mxGeometry relative="1" as="geometry">
            <mxPoint x="430" y="420" as="sourcePoint" />
            <mxPoint x="590" y="420" as="targetPoint" />
          </mxGeometry>
        </mxCell>
        <mxCell id="b25L0IEwAaMC9seaVLFK-57" value="" style="endArrow=none;html=1;rounded=0;entryX=0.75;entryY=1;entryDx=0;entryDy=0;exitX=0.5;exitY=0;exitDx=0;exitDy=0;" parent="ympUBMgaRm9vFQZxo2nO-1" source="b25L0IEwAaMC9seaVLFK-54" target="ympUBMgaRm9vFQZxo2nO-75" edge="1">
          <mxGeometry relative="1" as="geometry">
            <mxPoint x="720" y="550" as="sourcePoint" />
            <mxPoint x="760" y="530" as="targetPoint" />
          </mxGeometry>
        </mxCell>
        <mxCell id="b25L0IEwAaMC9seaVLFK-58" value="" style="endArrow=none;html=1;rounded=0;entryX=0;entryY=1;entryDx=0;entryDy=0;exitX=0.5;exitY=0;exitDx=0;exitDy=0;" parent="ympUBMgaRm9vFQZxo2nO-1" source="b25L0IEwAaMC9seaVLFK-52" target="b25L0IEwAaMC9seaVLFK-54" edge="1">
          <mxGeometry relative="1" as="geometry">
            <mxPoint x="730" y="560" as="sourcePoint" />
            <mxPoint x="770" y="540" as="targetPoint" />
          </mxGeometry>
        </mxCell>
        <mxCell id="b25L0IEwAaMC9seaVLFK-59" value="" style="endArrow=none;html=1;rounded=0;entryX=1;entryY=1;entryDx=0;entryDy=0;exitX=0.5;exitY=0;exitDx=0;exitDy=0;" parent="ympUBMgaRm9vFQZxo2nO-1" source="b25L0IEwAaMC9seaVLFK-53" target="b25L0IEwAaMC9seaVLFK-54" edge="1">
          <mxGeometry relative="1" as="geometry">
            <mxPoint x="740" y="570" as="sourcePoint" />
            <mxPoint x="780" y="550" as="targetPoint" />
          </mxGeometry>
        </mxCell>
        <mxCell id="b25L0IEwAaMC9seaVLFK-60" value="" style="endArrow=none;html=1;rounded=0;strokeWidth=1;align=center;fontStyle=0;exitX=1;exitY=0.5;exitDx=0;exitDy=0;entryX=0;entryY=0.5;entryDx=0;entryDy=0;shape=link;" parent="ympUBMgaRm9vFQZxo2nO-1" source="b25L0IEwAaMC9seaVLFK-4" target="ympUBMgaRm9vFQZxo2nO-76" edge="1">
          <mxGeometry relative="1" as="geometry">
            <mxPoint x="613" y="560" as="sourcePoint" />
            <mxPoint x="641" y="560" as="targetPoint" />
          </mxGeometry>
        </mxCell>
        <mxCell id="b25L0IEwAaMC9seaVLFK-61" value="1" style="resizable=0;html=1;align=right;verticalAlign=bottom;spacingRight=-10;spacingLeft=0;" parent="b25L0IEwAaMC9seaVLFK-60" connectable="0" vertex="1">
          <mxGeometry x="1" relative="1" as="geometry">
            <mxPoint x="-10" as="offset" />
          </mxGeometry>
        </mxCell>
        <mxCell id="b25L0IEwAaMC9seaVLFK-62" value="" style="endArrow=none;html=1;rounded=0;strokeWidth=1;align=center;fontStyle=0;exitX=1;exitY=0.5;exitDx=0;exitDy=0;entryX=0;entryY=0.5;entryDx=0;entryDy=0;shape=link;" parent="ympUBMgaRm9vFQZxo2nO-1" source="ympUBMgaRm9vFQZxo2nO-76" target="ympUBMgaRm9vFQZxo2nO-8" edge="1">
          <mxGeometry relative="1" as="geometry">
            <mxPoint x="623" y="570" as="sourcePoint" />
            <mxPoint x="651" y="570" as="targetPoint" />
          </mxGeometry>
        </mxCell>
        <mxCell id="b25L0IEwAaMC9seaVLFK-63" value="N" style="resizable=0;html=1;align=right;verticalAlign=bottom;spacingRight=-10;spacingLeft=0;" parent="b25L0IEwAaMC9seaVLFK-62" connectable="0" vertex="1">
          <mxGeometry x="1" relative="1" as="geometry">
            <mxPoint x="-61" as="offset" />
          </mxGeometry>
        </mxCell>
        <mxCell id="b25L0IEwAaMC9seaVLFK-64" value="1" style="endArrow=none;html=1;rounded=0;exitX=1;exitY=0.5;exitDx=0;exitDy=0;entryX=0.5;entryY=1;entryDx=0;entryDy=0;" parent="ympUBMgaRm9vFQZxo2nO-1" source="ympUBMgaRm9vFQZxo2nO-8" target="ympUBMgaRm9vFQZxo2nO-73" edge="1">
          <mxGeometry x="0.957" y="10" relative="1" as="geometry">
            <mxPoint x="510" y="460" as="sourcePoint" />
            <mxPoint x="670" y="460" as="targetPoint" />
            <Array as="points">
              <mxPoint x="1020" y="670" />
            </Array>
            <mxPoint as="offset" />
          </mxGeometry>
        </mxCell>
        <mxCell id="b25L0IEwAaMC9seaVLFK-66" value="1" style="endArrow=none;html=1;rounded=0;entryX=1;entryY=1;entryDx=0;entryDy=0;exitX=0.5;exitY=0;exitDx=0;exitDy=0;" parent="ympUBMgaRm9vFQZxo2nO-1" source="ympUBMgaRm9vFQZxo2nO-73" target="ympUBMgaRm9vFQZxo2nO-53" edge="1">
          <mxGeometry x="-1" y="-11" relative="1" as="geometry">
            <mxPoint x="510" y="460" as="sourcePoint" />
            <mxPoint x="670" y="460" as="targetPoint" />
            <mxPoint x="2" y="3" as="offset" />
          </mxGeometry>
        </mxCell>
        <mxCell id="KP1sSPg2kq-w8FEz6eIg-0" value="" style="endArrow=none;html=1;strokeWidth=1;exitX=0.5;exitY=1;exitDx=0;exitDy=0;entryX=0.5;entryY=0;entryDx=0;entryDy=0;" parent="ympUBMgaRm9vFQZxo2nO-1" source="KP1sSPg2kq-w8FEz6eIg-1" target="b25L0IEwAaMC9seaVLFK-18" edge="1">
          <mxGeometry width="50" height="50" relative="1" as="geometry">
            <mxPoint x="281" y="240" as="sourcePoint" />
            <mxPoint x="201" y="170" as="targetPoint" />
          </mxGeometry>
        </mxCell>
        <mxCell id="KP1sSPg2kq-w8FEz6eIg-1" value="Password" style="ellipse;whiteSpace=wrap;html=1;align=center;shadow=0;strokeColor=#666666;strokeWidth=1;fillColor=#FFFFFF;" parent="ympUBMgaRm9vFQZxo2nO-1" vertex="1">
          <mxGeometry x="141" y="55" width="80" height="40" as="geometry" />
        </mxCell>
        <mxCell id="VVV2h_LWaRIWeOrUVnYZ-0" value="BirthDate" style="ellipse;whiteSpace=wrap;html=1;align=center;shadow=0;strokeColor=#666666;strokeWidth=1;fillColor=#FFFFFF;" parent="ympUBMgaRm9vFQZxo2nO-1" vertex="1">
          <mxGeometry x="561.01" y="165" width="80" height="40" as="geometry" />
        </mxCell>
        <mxCell id="VVV2h_LWaRIWeOrUVnYZ-1" value="" style="endArrow=none;html=1;rounded=0;entryX=0;entryY=0.75;entryDx=0;entryDy=0;exitX=1;exitY=0.5;exitDx=0;exitDy=0;" parent="ympUBMgaRm9vFQZxo2nO-1" source="VVV2h_LWaRIWeOrUVnYZ-0" target="ympUBMgaRm9vFQZxo2nO-53" edge="1">
          <mxGeometry width="50" height="50" relative="1" as="geometry">
            <mxPoint x="670" y="105" as="sourcePoint" />
            <mxPoint x="730" y="135" as="targetPoint" />
          </mxGeometry>
        </mxCell>
        <mxCell id="yz8rhdaDb1qIB_dm_TD1-3" value="DogID" style="ellipse;whiteSpace=wrap;html=1;align=center;shadow=0;strokeColor=#666666;strokeWidth=1;fillColor=#FFFFFF;fontStyle=4" parent="ympUBMgaRm9vFQZxo2nO-1" vertex="1">
          <mxGeometry x="561.01" y="95" width="80" height="40" as="geometry" />
        </mxCell>
        <mxCell id="yz8rhdaDb1qIB_dm_TD1-4" value="" style="endArrow=none;html=1;rounded=0;entryX=0;entryY=0.25;entryDx=0;entryDy=0;exitX=1;exitY=0.5;exitDx=0;exitDy=0;" parent="ympUBMgaRm9vFQZxo2nO-1" source="yz8rhdaDb1qIB_dm_TD1-3" target="ympUBMgaRm9vFQZxo2nO-53" edge="1">
          <mxGeometry width="50" height="50" relative="1" as="geometry">
            <mxPoint x="639" y="84" as="sourcePoint" />
            <mxPoint x="730" y="135" as="targetPoint" />
          </mxGeometry>
        </mxCell>
        <mxCell id="yz8rhdaDb1qIB_dm_TD1-5" value="&lt;b&gt;REGISTERS&lt;/b&gt;" style="shape=rhombus;perimeter=rhombusPerimeter;whiteSpace=wrap;html=1;align=center;shadow=0;strokeColor=#666666;strokeWidth=1;fillColor=#EEEEEE;" parent="ympUBMgaRm9vFQZxo2nO-1" vertex="1">
          <mxGeometry x="410" y="95" width="100" height="100" as="geometry" />
        </mxCell>
        <mxCell id="ReveWXHtMEPwcWJytBVd-0" value="&lt;b&gt;DIRECTOR&lt;/b&gt;" style="whiteSpace=wrap;html=1;align=center;shadow=0;strokeColor=#666666;strokeWidth=1;fillColor=#E3E3E3;" vertex="1" parent="ympUBMgaRm9vFQZxo2nO-1">
          <mxGeometry x="119" y="200" width="119" height="40" as="geometry" />
        </mxCell>
        <mxCell id="ReveWXHtMEPwcWJytBVd-2" value="&lt;b&gt;VOLUNTEER&lt;/b&gt;" style="whiteSpace=wrap;html=1;align=center;shadow=0;strokeColor=#666666;strokeWidth=1;fillColor=#E3E3E3;" vertex="1" parent="ympUBMgaRm9vFQZxo2nO-1">
          <mxGeometry x="119" y="330" width="119" height="40" as="geometry" />
        </mxCell>
        <mxCell id="ReveWXHtMEPwcWJytBVd-3" value="" style="endArrow=none;html=1;rounded=0;exitX=0;exitY=0;exitDx=0;exitDy=0;entryX=0.75;entryY=1;entryDx=0;entryDy=0;" edge="1" parent="ympUBMgaRm9vFQZxo2nO-1" source="ympUBMgaRm9vFQZxo2nO-43" target="ReveWXHtMEPwcWJytBVd-2">
          <mxGeometry width="50" height="50" relative="1" as="geometry">
            <mxPoint x="300" y="400" as="sourcePoint" />
            <mxPoint x="300" y="360" as="targetPoint" />
          </mxGeometry>
        </mxCell>
        <mxCell id="ympUBMgaRm9vFQZxo2nO-68" value="U" style="text;html=1;strokeColor=none;fillColor=none;align=center;verticalAlign=middle;whiteSpace=wrap;rounded=0;shadow=0;fontSize=23;rotation=-215;" parent="ympUBMgaRm9vFQZxo2nO-1" vertex="1">
          <mxGeometry x="231" y="405" width="30" height="20" as="geometry" />
        </mxCell>
        <mxCell id="ReveWXHtMEPwcWJytBVd-6" value="U" style="text;html=1;strokeColor=none;fillColor=none;align=center;verticalAlign=middle;whiteSpace=wrap;rounded=0;shadow=0;fontSize=23;rotation=-180;" vertex="1" parent="ympUBMgaRm9vFQZxo2nO-1">
          <mxGeometry x="285" y="348" width="30" height="20" as="geometry" />
        </mxCell>
        <mxCell id="ReveWXHtMEPwcWJytBVd-10" value="&lt;b&gt;U&lt;/b&gt;" style="ellipse;whiteSpace=wrap;html=1;aspect=fixed;shadow=0;strokeColor=#666666;strokeWidth=1;gradientColor=none;fillColor=none;" vertex="1" parent="ympUBMgaRm9vFQZxo2nO-1">
          <mxGeometry x="158.5" y="265" width="40" height="40" as="geometry" />
        </mxCell>
        <mxCell id="ReveWXHtMEPwcWJytBVd-16" value="" style="endArrow=none;html=1;rounded=0;entryX=0.5;entryY=1;entryDx=0;entryDy=0;exitX=0.5;exitY=0;exitDx=0;exitDy=0;" edge="1" parent="ympUBMgaRm9vFQZxo2nO-1" source="ReveWXHtMEPwcWJytBVd-10" target="ReveWXHtMEPwcWJytBVd-0">
          <mxGeometry width="50" height="50" relative="1" as="geometry">
            <mxPoint x="150" y="320" as="sourcePoint" />
            <mxPoint x="200" y="270" as="targetPoint" />
          </mxGeometry>
        </mxCell>
        <mxCell id="ReveWXHtMEPwcWJytBVd-17" value="" style="endArrow=none;html=1;rounded=0;exitX=0.5;exitY=0;exitDx=0;exitDy=0;entryX=0.5;entryY=1;entryDx=0;entryDy=0;" edge="1" parent="ympUBMgaRm9vFQZxo2nO-1" source="ReveWXHtMEPwcWJytBVd-2" target="ReveWXHtMEPwcWJytBVd-10">
          <mxGeometry width="50" height="50" relative="1" as="geometry">
            <mxPoint x="150" y="320" as="sourcePoint" />
            <mxPoint x="200" y="270" as="targetPoint" />
          </mxGeometry>
        </mxCell>
        <mxCell id="ReveWXHtMEPwcWJytBVd-19" value="" style="endArrow=none;html=1;rounded=0;entryX=0;entryY=0.5;entryDx=0;entryDy=0;exitX=0;exitY=0.5;exitDx=0;exitDy=0;" edge="1" parent="ympUBMgaRm9vFQZxo2nO-1" source="b25L0IEwAaMC9seaVLFK-18" target="ReveWXHtMEPwcWJytBVd-10">
          <mxGeometry width="50" height="50" relative="1" as="geometry">
            <mxPoint x="150" y="320" as="sourcePoint" />
            <mxPoint x="200" y="270" as="targetPoint" />
            <Array as="points">
              <mxPoint x="80" y="145" />
              <mxPoint x="80" y="285" />
            </Array>
          </mxGeometry>
        </mxCell>
        <mxCell id="ReveWXHtMEPwcWJytBVd-21" value="U" style="text;html=1;strokeColor=none;fillColor=none;align=center;verticalAlign=middle;whiteSpace=wrap;rounded=0;shadow=0;fontSize=23;rotation=-180;" vertex="1" parent="ympUBMgaRm9vFQZxo2nO-1">
          <mxGeometry x="65" y="205" width="30" height="20" as="geometry" />
        </mxCell>
      </root>
    </mxGraphModel>
  </diagram>
</mxfile>
